<?xml version="1.0" encoding="UTF-8"?>
<svg id="Lag_1" data-name="Lag 1" xmlns="http://www.w3.org/2000/svg" viewBox="0 0 321.78 148.05">
  <path d="M55.43,148.05c-7.29,0-13.9-1.95-19.76-5.88-5.73-3.9-9.39-9.59-10.95-17.02-8.74-2.21-15.02-6.26-18.91-12.14-3.87-6.01-5.8-12.9-5.8-20.73s1.5-15.13,4.51-23.09c3.15-7.96,7.52-15.32,13.09-22.11,5.59-6.92,12.24-12.46,19.97-16.64,7.73-4.31,16.24-6.45,25.56-6.45,5.87,0,10.52,1.29,13.97,3.9,3.59,2.48,6.17,5.73,7.73,9.78,1.56,3.9,2.37,7.96,2.37,12.14,0,1.29-.07,2.61-.21,3.9-.14,1.17-.37,2.42-.64,3.71l5.15-2.36c1.86-.79,3.73-1.51,5.59-2.14l3.01-1.17c2.44-5.35,5.02-10.57,7.73-15.66,2.72-5.22,5.8-10.04,9.23-14.47,2.85-3.65,6.3-6.92,10.31-9.78,4.14-2.86,8.67-4.31,13.53-4.31,4.44,0,7.59.91,9.46,2.74,1.86,1.7,2.78,3.84,2.78,6.45,0,3.65-1.36,7.11-4.07,10.38-2.58,3.27-5.94,6.32-10.1,9.19-4.14,2.74-8.67,5.35-13.53,7.83-4.72,2.36-9.32,4.43-13.74,6.26-2.85,7.83-5.87,15.72-9.02,23.66-3.01,7.83-6.74,15.26-11.16,22.3-4.44,6.92-10.31,13.05-17.62,18.4-5.45,4.05-11.39,7.04-17.83,9-6.3,1.95-12.38,2.93-18.27,2.93-1.01,0-2-.06-3.01-.19-.85,0-1.73-.06-2.58-.19,1.15,5.22,3.59,9.65,7.29,13.3,3.73,3.78,9.39,5.67,16.98,5.67,2.3,0,4.44-.32,6.44-.98,2-.53,4.3-1.57,6.88-3.14v-.19h.44c.44,0,.64.38.64,1.17,0,.91-.85,1.82-2.58,2.74-1.56.91-3.59,1.63-6.01,2.14-2.44.66-4.72.98-6.88.98v.06h0ZM113.2,46.51c5.59-2.48,11.09-5.22,16.54-8.21,5.45-3.14,9.96-6.45,13.53-9.97,3.59-3.65,5.36-7.43,5.36-11.35,0-1.82-.51-3.4-1.5-4.69-.85-1.44-2.51-2.14-4.95-2.14-2.72,0-5.36.85-7.94,2.55-2.44,1.57-4.58,3.46-6.44,5.67s-3.43,4.37-4.72,6.45c-1.86,3.27-3.66,6.79-5.36,10.57-1.56,3.65-3.08,7.36-4.51,11.14h-.02ZM24.27,122.23c-.14-.66-.21-1.29-.21-1.95v-1.76c0-8.34,2.51-16.04,7.52-23.09s11.73-13.5,20.2-19.37c8.58-5.88,18.11-11.23,28.58-16.04.85-2.99,1.29-6.07,1.29-9.19,0-3.78-.58-7.49-1.73-11.14s-3.15-6.73-6.01-9.19c-2.72-2.48-6.51-3.71-11.39-3.71-7.45,0-14.47,2.14-21.05,6.45-6.44,4.31-12.1,9.91-16.98,16.83-4.88,6.79-8.74,14.15-11.6,22.11-2.72,7.83-4.07,15.26-4.07,22.3,0,6.64,1.15,12.52,3.43,17.61,2.3,4.97,6.3,8.34,12.03,10.16h0l-.02-.02ZM31.8,123.39h.85c4.72,0,10.1-1.23,16.11-3.71,6.17-2.48,12.68-6.98,19.56-13.5,7.16-6.79,12.88-14.54,17.19-23.28,4.44-8.87,8.67-17.87,12.68-26.99l-13.09,6.26c-2.72,7.96-7.39,15.66-13.97,23.09-6.44,7.43-13.39,13.62-20.85,18.59-1.01.66-1.93.98-2.78.98-.71,0-1.08-.19-1.08-.59s.14-.72.44-.98c6.3-4.31,12.54-9.78,18.68-16.42,6.17-6.64,10.61-13.81,13.32-21.52-8.17,4.31-15.83,9.25-22.99,14.88-7.16,5.47-13.02,11.48-17.62,17.99-4.44,6.39-6.65,13.24-6.65,20.54v2.36c0,.79.07,1.57.21,2.36v-.04ZM91.46,131.22c-2.58,0-5.15-.38-7.73-1.17-2.72-.66-4.95-1.95-6.65-3.9-1.86-1.82-2.78-4.37-2.78-7.64,0-1.82.78-3.84,2.37-6.07,1.43-2.36,3.22-3.52,5.36-3.52-1.15,1.57-1.73,3.46-1.73,5.67,0,2.36,1.08,4.31,3.22,5.88,2.14,1.7,5.59,2.55,10.31,2.55,5.45,0,11.16-1.44,17.19-4.31,6.01-2.74,12.1-6.39,18.27-10.95,6.17-4.69,12.17-9.85,18.04-15.45,5.87-5.6,11.32-11.29,16.31-17.02,5.73-6.51,11.53-12.9,17.39-19.16s11.53-11.86,16.98-16.83c5.59-5.09,10.52-9,14.82-11.73,1.43-.91,3.8-2.42,7.09-4.5,3.43-2.08,7.8-3.97,13.09-5.67-5.29.13-10.88.06-16.75-.19-5.73-.38-11.32-.91-16.75-1.57-3.01-.38-6.1-.72-9.23-.98-3.15-.25-6.37-.38-9.66-.38-8.74,0-16.98,1.04-24.71,3.12s-13.67,5.73-17.83,10.95c-2.44,3.14-3.66,6.2-3.66,9.19,0,2.08.51,3.78,1.5,5.09l1.93,1.76c.71.53,1.29.79,1.73.79-.58.53-1.29.79-2.14.79-1.01,0-2-.19-3.01-.59-.85-.53-1.56-1.04-2.14-1.57-1.43-1.44-2.51-3.06-3.22-4.88-.71-1.95-1.08-3.84-1.08-5.67,0-3.65,1.01-6.73,3.01-9.19,4-4.97,9.16-8.62,15.46-10.95,6.3-2.36,14.24-3.52,23.84-3.52,4.14,0,8.67.25,13.53.79,4.88.38,10.17.98,15.9,1.76,12.03,1.82,23.49,2.74,34.38,2.74,5.43,0,10.1-.25,13.97-.79,3.87-.66,6.3-1.63,7.29-2.93,1.56,0,2.07.59,1.5,1.76-.44,1.7-1.36,2.74-2.78,3.12s-3.01.91-4.72,1.57c-3.29,1.04-7.02,3.52-11.16,7.43s-8.44,8.74-12.88,14.47c-4.3,5.73-8.58,11.86-12.88,18.4-4.3,6.39-8.31,12.71-12.03,18.97-3.73,6.13-6.95,11.61-9.66,16.42-1.43,2.48-3.22,5.35-5.36,8.62s-4.51,6.26-7.09,9c4-2.74,8.74-6.58,14.17-11.54s11.09-10.57,16.98-16.83c6.01-6.26,11.8-12.58,17.39-18.97,5.29-6.26,11.25-12.9,17.83-19.95,6.58-7.04,13.32-13.75,20.2-20.16,7.02-6.39,13.9-11.67,20.62-15.85,6.88-4.31,13.18-6.79,18.91-7.43.71-.13,1.29-.19,1.73-.19h1.73c4.14,0,7.45.91,9.87,2.74,2.58,1.7,3.93,4.56,4.07,8.62,0,1.44-.44,2.99-1.29,4.69-.85,1.7-2.21,2.8-4.07,3.33.58-.66.92-1.63,1.08-2.93.28-1.29.51-2.42.64-3.33-.14-2.21-1.29-3.97-3.43-5.28-2-1.44-5.09-2.14-9.23-2.14-5.73,0-11.96,1.95-18.68,5.88-6.58,3.9-13.32,8.93-20.2,15.07-6.74,6.13-13.32,12.65-19.76,19.56-6.3,6.92-12.03,13.37-17.19,19.37-5.45,6.39-11.39,13.11-17.83,20.16-6.44,6.92-12.68,13.18-18.68,18.78-6.01,5.6-11.25,9.78-15.67,12.52-.85.53-2.14,1.04-3.87,1.57s-3.43.79-5.15.79c-1.43,0-2.78-.38-4.07-1.17-1.29-.66-2.07-1.82-2.37-3.52.28.13.78.25,1.5.38s1.5.19,2.37.19c1.56,0,3.36-.53,5.36-1.57s3.73-3.4,5.15-7.04c3.15-7.43,6.65-15.19,10.52-23.28,4-8.21,8.58-16.3,13.74-24.25,5.15-8.08,11.09-15.66,17.83-22.68,6.88-7.17,14.68-13.5,23.42-18.97-1.29,0-2.65.19-4.07.59l-2.14.38c-4,1.29-8.17,3.2-12.45,5.67-4.14,2.36-7.73,4.69-10.75,7.04-3.87,2.99-8.38,7.04-13.53,12.14-5.15,4.97-10.52,10.44-16.11,16.42-5.59,5.88-11.02,11.86-16.31,17.99-5.29,6.13-10.88,12.33-16.75,18.59-5.73,6.26-11.73,12.05-18.04,17.4-6.3,5.22-12.82,9.46-19.56,12.71-6.58,3.27-13.46,4.88-20.62,4.88l-.12-.06h0Z"/>
</svg>